<svg width="162" height="171" viewBox="0 0 162 171" fill="none" xmlns="http://www.w3.org/2000/svg">
<path d="M76.9694 3.40487L8.47233 27.2436C3.30618 29.0418 0.0894434 34.2002 0.752168 39.6338L11.7123 129.497C12.1658 133.229 14.3981 136.508 17.7001 138.306L75.2525 169.59C78.7289 171.477 82.9261 171.469 86.3948 169.57L144.343 137.81C147.625 136.012 149.842 132.737 150.295 129.02L161.248 39.2075C161.914 33.7429 158.659 28.5613 153.446 26.7901L84.5306 3.37774C82.0774 2.54449 79.4149 2.55224 76.9694 3.40487Z" fill="url(#paint0_linear_1_3285)"/>
<path d="M153.167 41.3895L142.858 126.11C142.548 128.59 141.075 130.76 138.866 131.962L84.6468 160.99C83.4841 161.61 82.2439 161.881 81.0037 161.881C80.81 161.881 80.6549 161.843 80.4611 161.843C79.4147 161.804 78.3683 161.533 77.3607 160.99L23.1413 132.466C20.971 131.264 19.4595 129.055 19.1494 126.575L8.84038 41.777C8.37531 38.1728 10.5456 34.7235 13.9561 33.5221L78.3683 10.7724C79.0659 10.5398 79.7635 10.3848 80.4612 10.3848C80.6549 10.3461 80.81 10.3461 81.0037 10.3461C81.8564 10.3461 82.709 10.5011 83.5616 10.7724C89.685 12.9815 107.59 19.4149 147.974 33.0957C151.423 34.2972 153.632 37.7464 153.167 41.3895Z" fill="url(#paint1_linear_1_3285)"/>
<path d="M30.6714 126.11H47.7588L81.0036 54.4269V17.5779L30.6714 126.11Z" fill="white"/>
<path d="M57.75 87.3539H81.0035V102.856H57.75V87.3539Z" fill="white"/>
<path d="M153.167 41.3895L142.858 126.11C142.548 128.59 141.075 130.76 138.866 131.962L84.6465 160.99C83.4838 161.61 82.2436 161.881 81.0034 161.881V10.3461C81.856 10.3461 82.7087 10.5011 83.5613 10.7724C89.6847 12.9815 107.59 19.4149 147.973 33.0957C151.423 34.2972 153.632 37.7464 153.167 41.3895Z" fill="#B31523"/>
<path d="M81.0034 17.5934V54.4424L114.248 126.125H131.336L81.0034 17.5934Z" fill="#BFC8D1"/>
<path d="M81.0034 87.3694H104.257V102.872H81.0034V87.3694Z" fill="#BFC8D1"/>
<path opacity="0.05" d="M81.0034 17.5779V17.5934L131.336 126.125H114.248L103.462 102.872H81.0034V102.856H58.5444L47.7587 126.11H30.6712L81.0034 17.5779ZM65.7336 87.3539H81.0034V87.3694H96.2732L81.0034 54.4424V54.4269L65.7336 87.3539ZM84.879 0.0253906L77.4883 15.9463L27.1561 124.478L24.6021 129.985H30.6712H47.7587H50.2352L51.2777 127.741L61.017 106.732H77.1278L81.0034 106.747H100.99L110.733 127.757L111.776 130.001H114.252H131.339H137.409L134.855 124.494L84.879 16.7369V0.0253906ZM71.8028 83.4783L80.9995 63.6469L90.204 83.4938H84.879L81.0034 83.4783H71.8028Z" fill="black"/>
<path opacity="0.07" d="M81.0035 17.5779V17.5934L131.336 126.125H114.248L103.462 102.872H81.0035V102.856H58.5445L47.7587 126.11H30.6713L81.0035 17.5779ZM65.7337 87.3539H81.0035V87.3694H96.2733L81.0035 54.4425V54.427L65.7337 87.3539ZM82.9413 8.8075L79.244 16.7602L28.9118 125.296L27.6367 128.048H30.6713H47.7587H48.9951L49.5144 126.924L59.7769 104.794H79.0657L81.0035 104.81H102.226L112.489 126.939L113.008 128.063H114.244H131.332H134.366L133.091 125.311L82.9413 17.1671V8.8075ZM68.7683 85.4161L80.9996 59.0389L93.2387 85.4316H82.9413L81.0035 85.4161H68.7683Z" fill="black"/>
<defs>
<linearGradient id="paint0_linear_1_3285" x1="63.056" y1="18.5855" x2="63.056" y2="162.819" gradientUnits="userSpaceOnUse">
<stop offset="1" stop-color="#BFC8D1"/>
<stop offset="0.391" stop-color="#D6E0E9"/>
<stop stop-color="#DFE9F2"/>
</linearGradient>
<linearGradient id="paint1_linear_1_3285" x1="44.8906" y1="48.2299" x2="44.8906" y2="48.2299" gradientUnits="userSpaceOnUse">
<stop offset="1" stop-color="#E52030"/>
<stop offset="0.443" stop-color="#EE3D4A"/>
<stop stop-color="#F44F5A"/>
</linearGradient>
</defs>
</svg>
