<svg width="22" height="21" viewBox="0 0 22 21" fill="none" xmlns="http://www.w3.org/2000/svg">
<path d="M10.4301 0.407998C10.5313 0.161193 10.7716 4.76837e-07 11.0383 0C11.3051 0 11.5453 0.161193 11.6465 0.407998L14.132 6.38601C14.2269 6.61407 14.4414 6.76986 14.6876 6.78953L21.1416 7.30651C21.7253 7.3533 21.9615 8.08198 21.5171 8.46211L16.5999 12.6751C16.4126 12.8354 16.3305 13.0867 16.3871 13.3266L17.89 19.6251C17.9518 19.8835 17.8519 20.1537 17.637 20.3098C17.422 20.466 17.1342 20.4773 16.9075 20.3386L11.381 16.9642C11.1706 16.8357 10.906 16.8357 10.6956 16.9642L5.16908 20.3398C4.94247 20.4785 4.65464 20.4671 4.43966 20.311C4.22467 20.1549 4.12481 19.8847 4.18658 19.6263L5.68957 13.3266C5.7464 13.0867 5.66421 12.8352 5.47669 12.6751L0.559544 8.46211C0.357046 8.28949 0.27859 8.01182 0.360811 7.75875C0.443032 7.50568 0.669711 7.32715 0.934998 7.30651L7.38905 6.78953C7.63526 6.76986 7.84977 6.61406 7.94462 6.386L10.4301 0.409167V0.407998Z" fill="#FFFF00"/>
</svg>
