<svg width="23" height="22" viewBox="0 0 23 22" fill="none" xmlns="http://www.w3.org/2000/svg">
<path d="M6.57698 13.4086H3.36787C2.31459 13.4086 1.37116 12.6961 1.25926 11.648C1.21268 11.2098 1.18938 10.7695 1.18945 10.3288C1.18945 7.40512 2.20783 4.71957 3.90888 2.60788C4.3072 2.11306 4.92212 1.8595 5.55655 1.8595H9.67932C10.1758 1.85919 10.6691 1.93892 11.1402 2.09561L14.3369 3.16326C14.808 3.31995 15.3013 3.39968 15.7978 3.39938H17.1262C17.0482 3.02467 17.314 2.62944 17.7165 2.62944H18.6486C19.5612 2.62944 20.4072 3.16121 20.673 4.03381C21.0211 5.17332 21.2079 6.38161 21.2079 7.63405C21.2079 9.22834 20.9051 10.7508 20.3548 12.149C20.0407 12.9436 19.2399 13.4086 18.3858 13.4086H17.3048C16.8203 13.4086 16.54 12.8378 16.7915 12.4231C16.9016 12.2419 17.0053 12.057 17.1026 11.8687M6.57698 13.4086C7.21141 13.4086 7.59433 14.1518 7.32125 14.7247C6.83083 15.7568 6.57724 16.8855 6.57903 18.0282C6.57903 19.3039 7.61317 20.3381 8.88885 20.3381C9.31408 20.3381 9.65879 19.9933 9.65879 19.5681V18.9183C9.65879 18.3301 9.77172 17.748 9.98935 17.2018C10.3014 16.4216 10.9441 15.8365 11.6863 15.4412C12.8258 14.8332 13.8258 13.9941 14.6223 12.9774C15.1336 12.3266 15.8809 11.8687 16.7084 11.8687H17.1026M6.57698 13.4086H8.83752M17.1026 11.8687C17.7586 10.6009 18.1281 9.16058 18.1281 7.63405C18.1281 6.16911 17.7873 4.78322 17.1785 3.55131C17.1549 3.50204 17.1375 3.45071 17.1272 3.39938" stroke="#158B68" stroke-width="2" stroke-linecap="round" stroke-linejoin="round"/>
</svg>
