<svg width="34" height="34" viewBox="0 0 34 34" fill="none" xmlns="http://www.w3.org/2000/svg">
<path d="M1.28809 5.50368C1.28809 3.12272 3.21823 1.19256 5.59919 1.19257H9.9103C12.2913 1.19257 14.2214 3.12272 14.2214 5.50368V9.81479C14.2214 12.1958 12.2913 14.1259 9.9103 14.1259H5.59919C3.21823 14.1259 1.28809 12.1958 1.28809 9.81479V5.50368ZM1.28809 24.1852C1.28809 21.8042 3.21823 19.8741 5.59919 19.8741H9.9103C12.2913 19.8741 14.2214 21.8042 14.2214 24.1852V28.4963C14.2214 30.8772 12.2913 32.8074 9.9103 32.8074H5.59919C3.21823 32.8074 1.28809 30.8772 1.28809 28.4963V24.1852ZM19.9695 5.50368C19.9695 3.12272 21.8997 1.19256 24.2807 1.19257H28.5918C30.9727 1.19257 32.9029 3.12272 32.9029 5.50368V9.81479C32.9029 12.1958 30.9727 14.1259 28.5918 14.1259H24.2807C21.8997 14.1259 19.9695 12.1958 19.9695 9.81479V5.50368ZM19.9695 24.1852C19.9695 21.8042 21.8997 19.8741 24.2807 19.8741H28.5918C30.9727 19.8741 32.9029 21.8042 32.9029 24.1852V28.4963C32.9029 30.8772 30.9727 32.8074 28.5918 32.8074H24.2807C21.8997 32.8074 19.9695 30.8772 19.9695 28.4963V24.1852Z" stroke="#158B68" stroke-width="2" stroke-linecap="round" stroke-linejoin="round"/>
</svg>
