<svg width="22" height="22" viewBox="0 0 22 22" fill="none" xmlns="http://www.w3.org/2000/svg">
<path d="M10.4628 2.22828C10.5543 2.00513 10.7716 1.85938 11.0128 1.85938C11.2539 1.85938 11.4712 2.00512 11.5627 2.22828L13.8101 7.63357C13.8958 7.83978 14.0898 7.98065 14.3124 7.99843L20.1481 8.46588C20.6759 8.50819 20.8895 9.16706 20.4876 9.51077L16.0415 13.3202C15.8722 13.465 15.7979 13.6923 15.8491 13.9092L17.2081 19.6043C17.2639 19.838 17.1736 20.0823 16.9792 20.2234C16.7848 20.3646 16.5246 20.3748 16.3197 20.2494L11.3226 17.1983C11.1324 17.0821 10.8931 17.0821 10.7029 17.1983L5.70583 20.2505C5.50093 20.3759 5.24067 20.3656 5.04629 20.2245C4.8519 20.0833 4.7616 19.839 4.81746 19.6054L6.17645 13.9092C6.22783 13.6923 6.15352 13.4649 5.98397 13.3202L1.53791 9.51077C1.35481 9.35469 1.28387 9.10362 1.35821 8.8748C1.43256 8.64597 1.63752 8.48454 1.87739 8.46588L7.71311 7.99843C7.93574 7.98065 8.12969 7.83978 8.21546 7.63357L10.4628 2.22934V2.22828Z" stroke="#158B68" stroke-width="2" stroke-linecap="round" stroke-linejoin="round"/>
</svg>
