<svg width="23" height="22" viewBox="0 0 23 22" fill="none" xmlns="http://www.w3.org/2000/svg">
<path d="M5.54933 10.3288C6.37676 10.3288 7.12309 9.87096 7.63432 9.22011C8.43122 8.2034 9.43157 7.36423 10.5714 6.75631C11.3136 6.3621 11.9573 5.77489 12.2683 4.99571C12.4868 4.44983 12.599 3.86724 12.5989 3.27926L12.5989 2.62944C12.5989 2.20421 12.9436 1.8595 13.3688 1.8595C14.6445 1.8595 15.6786 2.89364 15.6786 4.16931C15.6786 5.35194 15.4117 6.47194 14.9364 7.47286C14.6634 8.0457 15.0463 8.78895 15.6807 8.78895M15.6807 8.78895H18.8898C19.9431 8.78895 20.8865 9.50139 20.9984 10.5495C21.0446 10.9828 21.0682 11.4221 21.0682 11.8687C21.0725 14.6778 20.1125 17.4033 18.3488 19.5896C17.9505 20.0845 17.3356 20.338 16.7011 20.338H12.5784C12.0825 20.338 11.5887 20.258 11.1175 20.1019L7.92074 19.0343C7.44964 18.8776 6.95638 18.7979 6.45991 18.7981L4.80095 18.7981M15.6807 8.78895H13.3688H15.6807ZM4.80095 18.7981C4.88616 19.0086 4.97855 19.2139 5.07813 19.4162C5.28036 19.8268 4.99805 20.338 4.54122 20.338H3.60908C2.69645 20.338 1.85054 19.8063 1.58466 18.9337C1.2291 17.7667 1.04884 16.5534 1.04981 15.3334C1.04981 13.7391 1.35265 12.2167 1.9029 10.8185C2.21703 10.0239 3.01777 9.55889 3.87292 9.55889H4.95391C5.43846 9.55889 5.71871 10.1297 5.4672 10.5444C4.59039 11.9877 4.12794 13.6446 4.13059 15.3334C4.13059 16.5592 4.36876 17.7284 4.80198 18.7981H4.80095Z" fill="#158B68"/>
<path d="M5.54933 10.3288C6.37676 10.3288 7.12309 9.87096 7.63432 9.22011C8.43122 8.2034 9.43157 7.36423 10.5714 6.75631C11.3136 6.3621 11.9573 5.77489 12.2683 4.99571C12.4868 4.44983 12.599 3.86724 12.5989 3.27926L12.5989 2.62944C12.5989 2.20421 12.9436 1.8595 13.3688 1.8595C14.6445 1.8595 15.6786 2.89364 15.6786 4.16931C15.6786 5.35194 15.4117 6.47194 14.9364 7.47286C14.6634 8.0457 15.0463 8.78895 15.6807 8.78895M15.6807 8.78895H18.8898C19.9431 8.78895 20.8865 9.50139 20.9984 10.5495C21.0446 10.9828 21.0682 11.4221 21.0682 11.8687C21.0725 14.6778 20.1125 17.4033 18.3488 19.5896C17.9505 20.0845 17.3356 20.338 16.7011 20.338H12.5784C12.0825 20.338 11.5887 20.258 11.1175 20.1019L7.92074 19.0343C7.44964 18.8776 6.95638 18.7979 6.45991 18.7981L4.80095 18.7981M15.6807 8.78895H13.3688M4.80095 18.7981C4.88616 19.0086 4.97855 19.2139 5.07813 19.4162C5.28036 19.8268 4.99805 20.338 4.54122 20.338H3.60908C2.69645 20.338 1.85054 19.8063 1.58466 18.9337C1.2291 17.7667 1.04884 16.5534 1.04981 15.3334C1.04981 13.7391 1.35265 12.2167 1.9029 10.8185C2.21703 10.0239 3.01777 9.55889 3.87292 9.55889H4.95391C5.43846 9.55889 5.71871 10.1297 5.4672 10.5444C4.59039 11.9877 4.12794 13.6446 4.13059 15.3334C4.13059 16.5592 4.36876 17.7284 4.80198 18.7981H4.80095Z" stroke="#158B68" stroke-width="2" stroke-linecap="round" stroke-linejoin="round"/>
</svg>
