<svg width="1920" height="4197" viewBox="0 0 1920 4197" fill="none" xmlns="http://www.w3.org/2000/svg">
<path d="M1115.23 1353.88H1232.36V1438.77H1115.23V1353.88Z" fill="white" stroke="black" stroke-width="0.01024"/>
<path d="M1231.12 1437.52H1233.61V1440.02H1231.12V1437.52ZM1228.68 1440.02H1226.23V1437.52H1228.68V1440.02ZM1223.8 1440.02H1221.36V1437.52H1223.8V1440.02ZM1218.92 1440.02H1216.47V1437.52H1218.92V1440.02ZM1214.05 1440.02H1211.6V1437.52H1214.05V1440.02ZM1209.17 1440.02H1206.73V1437.52H1209.17V1440.02ZM1204.29 1440.02H1201.84V1437.52H1204.29V1440.02ZM1199.41 1440.02H1196.97V1437.52H1199.41V1440.02ZM1194.53 1440.02H1192.08V1437.52H1194.53V1440.02ZM1189.66 1440.02H1187.21V1437.52H1189.66V1440.02ZM1184.77 1440.02H1182.32V1437.52H1184.77V1440.02ZM1179.9 1440.02H1177.45V1437.52H1179.9V1440.02ZM1175.03 1440.02H1172.58V1437.52H1175.03V1440.02ZM1170.14 1440.02H1167.69V1437.52H1170.14V1440.02ZM1165.27 1440.02H1162.82V1437.52H1165.27V1440.02ZM1160.38 1440.02H1157.94V1437.52H1160.38V1440.02ZM1155.51 1440.02H1153.06V1437.52H1155.51V1440.02ZM1150.62 1440.02H1148.18V1437.52H1150.62V1440.02ZM1145.75 1440.02H1143.3V1437.52H1145.75V1440.02ZM1140.86 1440.02H1138.42V1437.52H1140.86L1140.86 1440.02ZM1135.99 1440.02H1133.55V1437.52H1135.99L1135.99 1440.02ZM1131.12 1440.02H1128.67V1437.52H1131.12V1440.02ZM1126.23 1440.02H1123.79V1437.52H1126.23V1440.02ZM1121.36 1440.02H1118.92V1437.52H1121.36L1121.36 1440.02ZM1113.98 1437.52H1116.47V1440.02H1113.98V1437.52ZM1116.47 1435.02H1113.98V1432.53H1116.47V1435.02ZM1116.47 1430.04H1113.98V1427.55H1116.47V1430.04ZM1116.47 1425.04H1113.98V1422.55H1116.47V1425.04ZM1116.47 1420.05H1113.98V1417.56H1116.47V1420.05ZM1116.47 1415.05H1113.98V1412.56H1116.47V1415.05ZM1116.47 1410.05H1113.98V1407.56H1116.47V1410.05ZM1116.47 1405.06H1113.98V1402.57H1116.47V1405.06ZM1116.47 1400.08H1113.98V1397.59H1116.47V1400.08ZM1116.47 1395.08H1113.98V1392.59H1116.47V1395.08ZM1116.47 1390.08H1113.98V1387.59H1116.47V1390.08ZM1116.47 1385.09H1113.98V1382.6H1116.47V1385.09ZM1116.47 1380.09H1113.98V1377.6H1116.47V1380.09ZM1116.47 1375.1H1113.98V1372.61H1116.47V1375.1ZM1116.47 1370.1H1113.98V1367.61H1116.47V1370.1ZM1116.47 1365.12H1113.98V1362.63H1116.47V1365.12ZM1116.47 1360.12H1113.98V1357.63H1116.47V1360.12ZM1113.98 1352.64H1116.47V1355.13H1113.98V1352.64ZM1228.68 1355.13H1226.23V1352.64H1228.68V1355.13ZM1223.8 1355.13H1221.36V1352.64H1223.8V1355.13ZM1218.92 1355.13H1216.47V1352.64H1218.92V1355.13ZM1214.05 1355.13H1211.6V1352.64H1214.05V1355.13ZM1209.17 1355.13H1206.73V1352.64H1209.17V1355.13ZM1204.29 1355.13H1201.84V1352.64H1204.29V1355.13ZM1199.41 1355.13H1196.97V1352.64H1199.41V1355.13ZM1194.53 1355.13H1192.08V1352.64H1194.53V1355.13ZM1189.66 1355.13H1187.21V1352.64H1189.66V1355.13ZM1184.77 1355.13H1182.32V1352.64H1184.77V1355.13ZM1179.9 1355.13H1177.45V1352.64H1179.9V1355.13ZM1175.03 1355.13H1172.58V1352.64H1175.03V1355.13ZM1170.14 1355.13H1167.69V1352.64H1170.14V1355.13ZM1165.27 1355.13H1162.82V1352.64H1165.27V1355.13ZM1160.38 1355.13H1157.94V1352.64H1160.38V1355.13ZM1155.51 1355.13H1153.06V1352.64H1155.51V1355.13ZM1150.62 1355.13H1148.18V1352.64H1150.62V1355.13ZM1145.75 1355.13H1143.3V1352.64H1145.75V1355.13ZM1140.86 1355.13H1138.42V1352.64H1140.86L1140.86 1355.13ZM1135.99 1355.13H1133.55V1352.64H1135.99L1135.99 1355.13ZM1131.12 1355.13H1128.67V1352.64H1131.12V1355.13ZM1126.23 1355.13H1123.79V1352.64H1126.23V1355.13ZM1121.36 1355.13H1118.92V1352.64H1121.36L1121.36 1355.13ZM1231.12 1352.64H1233.61V1355.13H1231.12V1352.64ZM1233.61 1435.02H1231.12V1432.53H1233.61V1435.02ZM1233.61 1430.04H1231.12V1427.55H1233.61V1430.04ZM1233.61 1425.04H1231.12V1422.55H1233.61V1425.04ZM1233.61 1420.05H1231.12V1417.56H1233.61V1420.05ZM1233.61 1415.05H1231.12V1412.56H1233.61V1415.05ZM1233.61 1410.05H1231.12V1407.56H1233.61V1410.05ZM1233.61 1405.06H1231.12V1402.57H1233.61V1405.06ZM1233.61 1400.08H1231.12V1397.59H1233.61V1400.08ZM1233.61 1395.08H1231.12V1392.59H1233.61V1395.08ZM1233.61 1390.08H1231.12V1387.59H1233.61V1390.08ZM1233.61 1385.09H1231.12V1382.6H1233.61V1385.09ZM1233.61 1380.09H1231.12V1377.6H1233.61V1380.09ZM1233.61 1375.1H1231.12V1372.61H1233.61V1375.1ZM1233.61 1370.1H1231.12V1367.61H1233.61V1370.1ZM1233.61 1365.12H1231.12V1362.63H1233.61V1365.12ZM1233.61 1360.12H1231.12V1357.63H1233.61V1360.12Z" fill="#0A0408" stroke="black" stroke-width="0.01024"/>
<path d="M1135.1 1365.69H1212.27V1421.65H1135.1V1365.69Z" fill="#F4BE6F" stroke="black" stroke-width="0.01024"/>
<path d="M1212.27 1422.89H1133.86V1365.69H1136.35V1420.4H1212.27V1422.89ZM1172.55 1441.98H1175.04V1463.33H1172.55V1441.98Z" fill="#0A0408" stroke="black" stroke-width="0.01024"/>
<path d="M1168.15 1465.18C1168.15 1468.26 1170.64 1470.75 1173.72 1470.75C1176.79 1470.75 1179.29 1468.26 1179.29 1465.18C1179.29 1462.11 1176.79 1459.61 1173.72 1459.61C1170.64 1459.61 1168.15 1462.11 1168.15 1465.18Z" fill="#55B7A8" stroke="black" stroke-width="0.01024"/>
<path d="M1173.72 1472C1169.95 1472 1166.9 1468.93 1166.9 1465.18C1166.9 1461.43 1169.97 1458.37 1173.72 1458.37C1177.48 1458.37 1180.53 1461.43 1180.53 1465.18C1180.53 1468.93 1177.48 1472 1173.72 1472ZM1173.72 1460.84C1171.32 1460.84 1169.39 1462.79 1169.39 1465.17C1169.39 1467.56 1171.34 1469.49 1173.72 1469.49C1176.11 1469.49 1178.04 1467.55 1178.04 1465.17C1178.06 1462.79 1176.11 1460.84 1173.72 1460.84Z" fill="#0A0408" stroke="black" stroke-width="0.01024"/>
<path d="M1135.99 1422.54L1134.23 1420.78L1163.97 1391.02L1178.68 1405.46L1199.71 1384.65L1201.45 1386.43L1178.7 1408.96L1163.99 1394.54L1135.99 1422.54Z" fill="#0A0408" stroke="black" stroke-width="0.01024"/>
<path d="M1202.32 1395.7H1199.83V1386.05H1190.18V1383.56H1202.32V1395.7Z" fill="#0A0408" stroke="black" stroke-width="0.01024"/>
<path d="M1105.36 1339.59H1242.23V1354.04H1105.36V1339.59Z" fill="#55B7A8" stroke="black" stroke-width="0.01024"/>
<path d="M1243.48 1355.28H1104.11V1338.35H1243.48L1243.48 1355.28ZM1106.6 1352.79H1240.99V1340.84H1106.6L1106.6 1352.79Z" fill="#0A0408" stroke="black" stroke-width="0.01024"/>
<path d="M1111.27 1434.8H1119.19V1442.72H1111.27V1434.8Z" fill="#DC444A" stroke="black" stroke-width="0.01024"/>
<path d="M1120.44 1443.97H1110.03V1433.56H1120.44V1443.97ZM1112.52 1441.48H1117.95V1436.05H1112.52V1441.48Z" fill="#0A0408" stroke="black" stroke-width="0.01024"/>
<path d="M1228.41 1434.8H1236.33V1442.72H1228.41V1434.8Z" fill="#DC444A" stroke="black" stroke-width="0.01024"/>
<path d="M1237.56 1443.97H1227.15V1433.56H1237.56V1443.97ZM1229.66 1441.48H1235.09V1436.05H1229.66V1441.48Z" fill="#0A0408" stroke="black" stroke-width="0.01024"/>
</svg>
